<svg xmlns="http://www.w3.org/2000/svg" width="600" height="400" viewBox="0 0 600 400" version="1.1"><path d="M 67.250 150.106 L 10 190.191 10 213.871 L 10 237.551 35.750 255.513 C 49.913 265.392, 75.795 283.470, 93.267 295.686 L 125.034 317.898 124.767 292.759 L 124.500 267.620 92 244.248 C 74.125 231.393, 57.196 219.216, 54.379 217.188 L 49.259 213.500 87.129 186.665 L 125 159.831 125 134.915 C 125 121.212, 124.888 110.005, 124.750 110.010 C 124.612 110.016, 98.738 128.059, 67.250 150.106 M 475.233 135.061 L 475.500 160.301 513.024 186.913 L 550.547 213.525 512.827 240.512 L 475.106 267.500 475.053 292.689 L 475 317.879 485.832 310.189 C 491.790 305.960, 517.659 287.875, 543.319 270 L 589.973 237.500 589.987 213.900 L 590 190.299 539.250 154.782 C 511.337 135.247, 485.455 117.140, 481.733 114.543 L 474.965 109.821 475.233 135.061" stroke="none" fill="#5c646c" fill-rule="evenodd"/><path d="M 305 173 L 305 327 334 327 L 363 327 363 283.372 L 363 239.743 366.073 234.372 C 367.764 231.417, 369.489 229, 369.906 229 C 370.324 229, 377.153 251.047, 385.083 277.993 L 399.500 326.985 429.357 326.993 C 452.846 326.998, 459.107 326.733, 458.713 325.750 C 458.437 325.063, 446.239 296.311, 431.606 261.857 C 416.973 227.403, 405 198.790, 405 198.273 C 405 197.756, 417.150 176.491, 432 151.018 C 446.850 125.545, 459 104.546, 459 104.352 C 459 104.158, 445.163 104.012, 428.250 104.026 L 397.500 104.053 380.500 141.655 L 363.500 179.257 363.244 99.129 L 362.988 19 333.994 19 L 305 19 305 173 M 144.374 105.750 C 144.654 106.713, 148.260 120.325, 152.386 136 C 175.607 224.207, 185.224 270.133, 186.661 299.682 C 187.412 315.116, 186.182 322.745, 181.839 329.593 C 178.338 335.113, 170.850 338.931, 161.941 339.739 L 156 340.278 156 360.281 L 156 380.284 171.750 379.729 C 196.251 378.865, 212.581 373.781, 222.994 363.775 C 228.731 358.262, 234.444 349.196, 236.911 341.690 C 238.391 337.187, 288 106.722, 288 104.351 C 288 104.158, 276.075 104, 261.500 104 C 246.925 104, 235.014 104.338, 235.032 104.750 C 235.172 108.072, 217.442 225.728, 216.946 224.760 C 216.592 224.067, 211.853 196.613, 206.414 163.750 L 196.526 104 170.195 104 C 145.592 104, 143.899 104.115, 144.374 105.750" stroke="none" fill="#e43c44" fill-rule="evenodd"/></svg>